<?xml version="1.0" encoding="UTF-8" standalone="no"?>
<!DOCTYPE svg PUBLIC "-//W3C//DTD SVG 1.1//EN"
 "http://www.w3.org/Graphics/SVG/1.1/DTD/svg11.dtd">
<!-- Generated by graphviz version 2.43.0 (0)
 -->
<!-- Title: %3 Pages: 1 -->
<svg width="2921pt" height="620pt"
 viewBox="0.00 0.00 2921.07 620.00" xmlns="http://www.w3.org/2000/svg" xmlns:xlink="http://www.w3.org/1999/xlink">
<g id="graph0" class="graph" transform="scale(1 1) rotate(0) translate(4 616)">
<title>%3</title>
<polygon fill="white" stroke="transparent" points="-4,4 -4,-616 2917.07,-616 2917.07,4 -4,4"/>
<!-- [root] module.create_instance.aws_eip.this (expand) -->
<g id="node1" class="node">
<title>[root] module.create_instance.aws_eip.this (expand)</title>
<polygon fill="none" stroke="black" points="1312,-324 1034,-324 1034,-288 1312,-288 1312,-324"/>
<text text-anchor="middle" x="1173" y="-302.3" font-family="Times,serif" font-size="14.00">module.create_instance.aws_eip.this</text>
</g>
<!-- [root] module.create_instance.aws_instance.this (expand) -->
<g id="node2" class="node">
<title>[root] module.create_instance.aws_instance.this (expand)</title>
<polygon fill="none" stroke="black" points="1842,-252 1526,-252 1526,-216 1842,-216 1842,-252"/>
<text text-anchor="middle" x="1684" y="-230.3" font-family="Times,serif" font-size="14.00">module.create_instance.aws_instance.this</text>
</g>
<!-- [root] module.create_instance.aws_eip.this (expand)&#45;&gt;[root] module.create_instance.aws_instance.this (expand) -->
<g id="edge8" class="edge">
<title>[root] module.create_instance.aws_eip.this (expand)&#45;&gt;[root] module.create_instance.aws_instance.this (expand)</title>
<path fill="none" stroke="black" d="M1297.35,-287.97C1373.7,-277.51 1471.49,-264.11 1549.62,-253.41"/>
<polygon fill="black" stroke="black" points="1550.1,-256.87 1559.53,-252.05 1549.15,-249.94 1550.1,-256.87"/>
</g>
<!-- [root] module.create_instance.var.aip_attach (expand) -->
<g id="node16" class="node">
<title>[root] module.create_instance.var.aip_attach (expand)</title>
<ellipse fill="none" stroke="black" cx="1156" cy="-234" rx="260.75" ry="18"/>
<text text-anchor="middle" x="1156" y="-230.3" font-family="Times,serif" font-size="14.00">[root] module.create_instance.var.aip_attach (expand)</text>
</g>
<!-- [root] module.create_instance.aws_eip.this (expand)&#45;&gt;[root] module.create_instance.var.aip_attach (expand) -->
<g id="edge9" class="edge">
<title>[root] module.create_instance.aws_eip.this (expand)&#45;&gt;[root] module.create_instance.var.aip_attach (expand)</title>
<path fill="none" stroke="black" d="M1168.8,-287.7C1166.9,-279.9 1164.62,-270.51 1162.52,-261.83"/>
<polygon fill="black" stroke="black" points="1165.92,-261 1160.15,-252.1 1159.11,-262.65 1165.92,-261"/>
</g>
<!-- [root] module.create_instance.aws_key_pair.this (expand) -->
<g id="node3" class="node">
<title>[root] module.create_instance.aws_key_pair.this (expand)</title>
<polygon fill="none" stroke="black" points="1664,-180 1350,-180 1350,-144 1664,-144 1664,-180"/>
<text text-anchor="middle" x="1507" y="-158.3" font-family="Times,serif" font-size="14.00">module.create_instance.aws_key_pair.this</text>
</g>
<!-- [root] module.create_instance.aws_instance.this (expand)&#45;&gt;[root] module.create_instance.aws_key_pair.this (expand) -->
<g id="edge10" class="edge">
<title>[root] module.create_instance.aws_instance.this (expand)&#45;&gt;[root] module.create_instance.aws_key_pair.this (expand)</title>
<path fill="none" stroke="black" d="M1640.7,-215.88C1616.29,-206.22 1585.6,-194.09 1559.79,-183.88"/>
<polygon fill="black" stroke="black" points="1560.74,-180.49 1550.16,-180.07 1558.17,-187 1560.74,-180.49"/>
</g>
<!-- [root] module.create_instance.aws_security_group.this (expand) -->
<g id="node4" class="node">
<title>[root] module.create_instance.aws_security_group.this (expand)</title>
<polygon fill="none" stroke="black" points="807,-180 445,-180 445,-144 807,-144 807,-180"/>
<text text-anchor="middle" x="626" y="-158.3" font-family="Times,serif" font-size="14.00">module.create_instance.aws_security_group.this</text>
</g>
<!-- [root] module.create_instance.aws_instance.this (expand)&#45;&gt;[root] module.create_instance.aws_security_group.this (expand) -->
<g id="edge11" class="edge">
<title>[root] module.create_instance.aws_instance.this (expand)&#45;&gt;[root] module.create_instance.aws_security_group.this (expand)</title>
<path fill="none" stroke="black" d="M1525.89,-222.54C1336.76,-210.03 1020.32,-189.09 817.51,-175.67"/>
<polygon fill="black" stroke="black" points="817.55,-172.17 807.34,-175 817.08,-179.15 817.55,-172.17"/>
</g>
<!-- [root] module.create_instance.var.instance_count (expand) -->
<g id="node17" class="node">
<title>[root] module.create_instance.var.instance_count (expand)</title>
<ellipse fill="none" stroke="black" cx="2631" cy="-162" rx="282.15" ry="18"/>
<text text-anchor="middle" x="2631" y="-158.3" font-family="Times,serif" font-size="14.00">[root] module.create_instance.var.instance_count (expand)</text>
</g>
<!-- [root] module.create_instance.aws_instance.this (expand)&#45;&gt;[root] module.create_instance.var.instance_count (expand) -->
<g id="edge12" class="edge">
<title>[root] module.create_instance.aws_instance.this (expand)&#45;&gt;[root] module.create_instance.var.instance_count (expand)</title>
<path fill="none" stroke="black" d="M1842.24,-221.3C2007.99,-209.05 2268.21,-189.82 2444,-176.82"/>
<polygon fill="black" stroke="black" points="2444.42,-180.3 2454.14,-176.07 2443.91,-173.32 2444.42,-180.3"/>
</g>
<!-- [root] module.create_instance.var.instance_tags_name (expand) -->
<g id="node18" class="node">
<title>[root] module.create_instance.var.instance_tags_name (expand)</title>
<ellipse fill="none" stroke="black" cx="2025" cy="-162" rx="305.45" ry="18"/>
<text text-anchor="middle" x="2025" y="-158.3" font-family="Times,serif" font-size="14.00">[root] module.create_instance.var.instance_tags_name (expand)</text>
</g>
<!-- [root] module.create_instance.aws_instance.this (expand)&#45;&gt;[root] module.create_instance.var.instance_tags_name (expand) -->
<g id="edge13" class="edge">
<title>[root] module.create_instance.aws_instance.this (expand)&#45;&gt;[root] module.create_instance.var.instance_tags_name (expand)</title>
<path fill="none" stroke="black" d="M1766.98,-215.97C1817.91,-205.51 1883.14,-192.12 1935.27,-181.42"/>
<polygon fill="black" stroke="black" points="1936.08,-184.83 1945.18,-179.39 1934.68,-177.97 1936.08,-184.83"/>
</g>
<!-- [root] module.create_instance.var.my_instance_type (expand) -->
<g id="node19" class="node">
<title>[root] module.create_instance.var.my_instance_type (expand)</title>
<ellipse fill="none" stroke="black" cx="1864" cy="-90" rx="295.15" ry="18"/>
<text text-anchor="middle" x="1864" y="-86.3" font-family="Times,serif" font-size="14.00">[root] module.create_instance.var.my_instance_type (expand)</text>
</g>
<!-- [root] module.create_instance.aws_instance.this (expand)&#45;&gt;[root] module.create_instance.var.my_instance_type (expand) -->
<g id="edge14" class="edge">
<title>[root] module.create_instance.aws_instance.this (expand)&#45;&gt;[root] module.create_instance.var.my_instance_type (expand)</title>
<path fill="none" stroke="black" d="M1684.68,-215.96C1686.38,-196.15 1692.08,-163.67 1711,-144 1725.32,-129.11 1744.02,-118.41 1763.41,-110.71"/>
<polygon fill="black" stroke="black" points="1764.81,-113.92 1772.97,-107.16 1762.38,-107.36 1764.81,-113.92"/>
</g>
<!-- [root] provider[&quot;registry.terraform.io/hashicorp/aws&quot;] -->
<g id="node8" class="node">
<title>[root] provider[&quot;registry.terraform.io/hashicorp/aws&quot;]</title>
<polygon fill="none" stroke="black" points="1188,-108 862.74,-90 1188,-72 1513.26,-90 1188,-108"/>
<text text-anchor="middle" x="1188" y="-86.3" font-family="Times,serif" font-size="14.00">provider[&quot;registry.terraform.io/hashicorp/aws&quot;]</text>
</g>
<!-- [root] module.create_instance.aws_key_pair.this (expand)&#45;&gt;[root] provider[&quot;registry.terraform.io/hashicorp/aws&quot;] -->
<g id="edge16" class="edge">
<title>[root] module.create_instance.aws_key_pair.this (expand)&#45;&gt;[root] provider[&quot;registry.terraform.io/hashicorp/aws&quot;]</title>
<path fill="none" stroke="black" d="M1429.37,-143.97C1377.68,-132.62 1310.24,-117.82 1259.79,-106.75"/>
<polygon fill="black" stroke="black" points="1260.45,-103.32 1249.93,-104.59 1258.95,-110.15 1260.45,-103.32"/>
</g>
<!-- [root] module.create_instance (expand) -->
<g id="node20" class="node">
<title>[root] module.create_instance (expand)</title>
<ellipse fill="none" stroke="black" cx="1702" cy="-18" rx="192.27" ry="18"/>
<text text-anchor="middle" x="1702" y="-14.3" font-family="Times,serif" font-size="14.00">[root] module.create_instance (expand)</text>
</g>
<!-- [root] module.create_instance.aws_key_pair.this (expand)&#45;&gt;[root] module.create_instance (expand) -->
<g id="edge15" class="edge">
<title>[root] module.create_instance.aws_key_pair.this (expand)&#45;&gt;[root] module.create_instance (expand)</title>
<path fill="none" stroke="black" d="M1513.12,-143.9C1521.04,-124.02 1536.67,-91.47 1560,-72 1577.95,-57.02 1600.55,-46.05 1622.4,-38.12"/>
<polygon fill="black" stroke="black" points="1623.73,-41.36 1632.04,-34.79 1621.44,-34.75 1623.73,-41.36"/>
</g>
<!-- [root] module.create_instance.aws_security_group.this (expand)&#45;&gt;[root] provider[&quot;registry.terraform.io/hashicorp/aws&quot;] -->
<g id="edge18" class="edge">
<title>[root] module.create_instance.aws_security_group.this (expand)&#45;&gt;[root] provider[&quot;registry.terraform.io/hashicorp/aws&quot;]</title>
<path fill="none" stroke="black" d="M762.76,-143.97C861.57,-131.66 993.01,-115.29 1083.47,-104.02"/>
<polygon fill="black" stroke="black" points="1083.98,-107.48 1093.47,-102.77 1083.11,-100.54 1083.98,-107.48"/>
</g>
<!-- [root] module.create_instance.local.common_tags (expand) -->
<g id="node21" class="node">
<title>[root] module.create_instance.local.common_tags (expand)</title>
<ellipse fill="none" stroke="black" cx="524" cy="-90" rx="283.25" ry="18"/>
<text text-anchor="middle" x="524" y="-86.3" font-family="Times,serif" font-size="14.00">[root] module.create_instance.local.common_tags (expand)</text>
</g>
<!-- [root] module.create_instance.aws_security_group.this (expand)&#45;&gt;[root] module.create_instance.local.common_tags (expand) -->
<g id="edge17" class="edge">
<title>[root] module.create_instance.aws_security_group.this (expand)&#45;&gt;[root] module.create_instance.local.common_tags (expand)</title>
<path fill="none" stroke="black" d="M601.05,-143.88C587.86,-134.83 571.5,-123.6 557.25,-113.82"/>
<polygon fill="black" stroke="black" points="558.92,-110.72 548.69,-107.95 554.96,-116.49 558.92,-110.72"/>
</g>
<!-- [root] module.create_instance.aws_security_group_rule.SSH (expand) -->
<g id="node5" class="node">
<title>[root] module.create_instance.aws_security_group_rule.SSH (expand)</title>
<polygon fill="none" stroke="black" points="1282.5,-396 881.5,-396 881.5,-360 1282.5,-360 1282.5,-396"/>
<text text-anchor="middle" x="1082" y="-374.3" font-family="Times,serif" font-size="14.00">module.create_instance.aws_security_group_rule.SSH</text>
</g>
<!-- [root] module.create_instance.aws_security_group_rule.SSH (expand)&#45;&gt;[root] module.create_instance.aws_security_group.this (expand) -->
<g id="edge19" class="edge">
<title>[root] module.create_instance.aws_security_group_rule.SSH (expand)&#45;&gt;[root] module.create_instance.aws_security_group.this (expand)</title>
<path fill="none" stroke="black" d="M1045.45,-359.85C962.89,-321.1 762.11,-226.88 671.59,-184.39"/>
<polygon fill="black" stroke="black" points="672.94,-181.16 662.4,-180.08 669.97,-187.5 672.94,-181.16"/>
</g>
<!-- [root] module.create_instance.aws_security_group_rule.http (expand) -->
<g id="node6" class="node">
<title>[root] module.create_instance.aws_security_group_rule.http (expand)</title>
<polygon fill="none" stroke="black" points="826.5,-396 425.5,-396 425.5,-360 826.5,-360 826.5,-396"/>
<text text-anchor="middle" x="626" y="-374.3" font-family="Times,serif" font-size="14.00">module.create_instance.aws_security_group_rule.http</text>
</g>
<!-- [root] module.create_instance.aws_security_group_rule.http (expand)&#45;&gt;[root] module.create_instance.aws_security_group.this (expand) -->
<g id="edge20" class="edge">
<title>[root] module.create_instance.aws_security_group_rule.http (expand)&#45;&gt;[root] module.create_instance.aws_security_group.this (expand)</title>
<path fill="none" stroke="black" d="M626,-359.85C626,-322.83 626,-235.18 626,-190.39"/>
<polygon fill="black" stroke="black" points="629.5,-190.23 626,-180.23 622.5,-190.23 629.5,-190.23"/>
</g>
<!-- [root] module.create_instance.aws_security_group_rule.https (expand) -->
<g id="node7" class="node">
<title>[root] module.create_instance.aws_security_group_rule.https (expand)</title>
<polygon fill="none" stroke="black" points="408,-396 0,-396 0,-360 408,-360 408,-396"/>
<text text-anchor="middle" x="204" y="-374.3" font-family="Times,serif" font-size="14.00">module.create_instance.aws_security_group_rule.https</text>
</g>
<!-- [root] module.create_instance.aws_security_group_rule.https (expand)&#45;&gt;[root] module.create_instance.aws_security_group.this (expand) -->
<g id="edge21" class="edge">
<title>[root] module.create_instance.aws_security_group_rule.https (expand)&#45;&gt;[root] module.create_instance.aws_security_group.this (expand)</title>
<path fill="none" stroke="black" d="M237.82,-359.85C314.08,-321.18 499.29,-227.26 583.3,-184.65"/>
<polygon fill="black" stroke="black" points="584.98,-187.73 592.31,-180.08 581.81,-181.48 584.98,-187.73"/>
</g>
<!-- [root] var.instance_count -->
<g id="node9" class="node">
<title>[root] var.instance_count</title>
<polygon fill="none" stroke="black" points="2699.5,-108 2556.5,-108 2556.5,-72 2705.5,-72 2705.5,-102 2699.5,-108"/>
<polyline fill="none" stroke="black" points="2699.5,-108 2699.5,-102 "/>
<polyline fill="none" stroke="black" points="2705.5,-102 2699.5,-102 "/>
<text text-anchor="middle" x="2631" y="-86.3" font-family="Times,serif" font-size="14.00">var.instance_count</text>
</g>
<!-- [root] var.instance_tags_name -->
<g id="node10" class="node">
<title>[root] var.instance_tags_name</title>
<polygon fill="none" stroke="black" points="2357,-108 2177,-108 2177,-72 2363,-72 2363,-102 2357,-108"/>
<polyline fill="none" stroke="black" points="2357,-108 2357,-102 "/>
<polyline fill="none" stroke="black" points="2363,-102 2357,-102 "/>
<text text-anchor="middle" x="2270" y="-86.3" font-family="Times,serif" font-size="14.00">var.instance_tags_name</text>
</g>
<!-- [root] meta.count&#45;boundary (EachMode fixup) -->
<g id="node11" class="node">
<title>[root] meta.count&#45;boundary (EachMode fixup)</title>
<ellipse fill="none" stroke="black" cx="1171" cy="-522" rx="222.86" ry="18"/>
<text text-anchor="middle" x="1171" y="-518.3" font-family="Times,serif" font-size="14.00">[root] meta.count&#45;boundary (EachMode fixup)</text>
</g>
<!-- [root] module.create_instance (close) -->
<g id="node12" class="node">
<title>[root] module.create_instance (close)</title>
<ellipse fill="none" stroke="black" cx="1232" cy="-450" rx="182.77" ry="18"/>
<text text-anchor="middle" x="1232" y="-446.3" font-family="Times,serif" font-size="14.00">[root] module.create_instance (close)</text>
</g>
<!-- [root] meta.count&#45;boundary (EachMode fixup)&#45;&gt;[root] module.create_instance (close) -->
<g id="edge1" class="edge">
<title>[root] meta.count&#45;boundary (EachMode fixup)&#45;&gt;[root] module.create_instance (close)</title>
<path fill="none" stroke="black" d="M1186.08,-503.7C1193.39,-495.3 1202.31,-485.07 1210.34,-475.86"/>
<polygon fill="black" stroke="black" points="1213.16,-477.94 1217.09,-468.1 1207.89,-473.34 1213.16,-477.94"/>
</g>
<!-- [root] module.create_instance (close)&#45;&gt;[root] module.create_instance.aws_security_group_rule.SSH (expand) -->
<g id="edge2" class="edge">
<title>[root] module.create_instance (close)&#45;&gt;[root] module.create_instance.aws_security_group_rule.SSH (expand)</title>
<path fill="none" stroke="black" d="M1196.07,-432.23C1175.59,-422.68 1149.73,-410.61 1127.8,-400.38"/>
<polygon fill="black" stroke="black" points="1129.22,-397.17 1118.68,-396.12 1126.26,-403.52 1129.22,-397.17"/>
</g>
<!-- [root] module.create_instance (close)&#45;&gt;[root] module.create_instance.aws_security_group_rule.http (expand) -->
<g id="edge3" class="edge">
<title>[root] module.create_instance (close)&#45;&gt;[root] module.create_instance.aws_security_group_rule.http (expand)</title>
<path fill="none" stroke="black" d="M1118.37,-435.87C1023.83,-424.95 888.24,-409.29 783.27,-397.17"/>
<polygon fill="black" stroke="black" points="783.55,-393.68 773.21,-396 782.75,-400.63 783.55,-393.68"/>
</g>
<!-- [root] module.create_instance (close)&#45;&gt;[root] module.create_instance.aws_security_group_rule.https (expand) -->
<g id="edge4" class="edge">
<title>[root] module.create_instance (close)&#45;&gt;[root] module.create_instance.aws_security_group_rule.https (expand)</title>
<path fill="none" stroke="black" d="M1104.39,-437.09C1083.23,-435.27 1061.5,-433.5 1041,-432 766.89,-411.91 695.32,-415.04 418.57,-396.17"/>
<polygon fill="black" stroke="black" points="418.43,-392.65 408.21,-395.46 417.95,-399.63 418.43,-392.65"/>
</g>
<!-- [root] module.create_instance.output.elastic_ip (expand) -->
<g id="node13" class="node">
<title>[root] module.create_instance.output.elastic_ip (expand)</title>
<ellipse fill="none" stroke="black" cx="1573" cy="-378" rx="272.15" ry="18"/>
<text text-anchor="middle" x="1573" y="-374.3" font-family="Times,serif" font-size="14.00">[root] module.create_instance.output.elastic_ip (expand)</text>
</g>
<!-- [root] module.create_instance (close)&#45;&gt;[root] module.create_instance.output.elastic_ip (expand) -->
<g id="edge5" class="edge">
<title>[root] module.create_instance (close)&#45;&gt;[root] module.create_instance.output.elastic_ip (expand)</title>
<path fill="none" stroke="black" d="M1307.26,-433.55C1359.33,-422.86 1428.84,-408.59 1483.72,-397.33"/>
<polygon fill="black" stroke="black" points="1484.69,-400.7 1493.78,-395.26 1483.29,-393.84 1484.69,-400.7"/>
</g>
<!-- [root] module.create_instance.output.instance_pub_dns (expand) -->
<g id="node14" class="node">
<title>[root] module.create_instance.output.instance_pub_dns (expand)</title>
<ellipse fill="none" stroke="black" cx="1675" cy="-306" rx="311.14" ry="18"/>
<text text-anchor="middle" x="1675" y="-302.3" font-family="Times,serif" font-size="14.00">[root] module.create_instance.output.instance_pub_dns (expand)</text>
</g>
<!-- [root] module.create_instance (close)&#45;&gt;[root] module.create_instance.output.instance_pub_dns (expand) -->
<g id="edge6" class="edge">
<title>[root] module.create_instance (close)&#45;&gt;[root] module.create_instance.output.instance_pub_dns (expand)</title>
<path fill="none" stroke="black" d="M1409.99,-445.89C1583.12,-440.96 1824.31,-428.33 1854,-396 1885.06,-362.18 1836.2,-339.55 1781.74,-325.57"/>
<polygon fill="black" stroke="black" points="1782.43,-322.13 1771.88,-323.14 1780.76,-328.93 1782.43,-322.13"/>
</g>
<!-- [root] module.create_instance.output.instance_pub_ip (expand) -->
<g id="node15" class="node">
<title>[root] module.create_instance.output.instance_pub_ip (expand)</title>
<ellipse fill="none" stroke="black" cx="2308" cy="-306" rx="303.55" ry="18"/>
<text text-anchor="middle" x="2308" y="-302.3" font-family="Times,serif" font-size="14.00">[root] module.create_instance.output.instance_pub_ip (expand)</text>
</g>
<!-- [root] module.create_instance (close)&#45;&gt;[root] module.create_instance.output.instance_pub_ip (expand) -->
<g id="edge7" class="edge">
<title>[root] module.create_instance (close)&#45;&gt;[root] module.create_instance.output.instance_pub_ip (expand)</title>
<path fill="none" stroke="black" d="M1391.3,-441.12C1521.36,-433.42 1709.68,-419.37 1873,-396 1999.01,-377.97 2143.46,-346.16 2230.12,-325.86"/>
<polygon fill="black" stroke="black" points="2230.95,-329.26 2239.88,-323.57 2229.34,-322.45 2230.95,-329.26"/>
</g>
<!-- [root] module.create_instance.output.elastic_ip (expand)&#45;&gt;[root] module.create_instance.aws_eip.this (expand) -->
<g id="edge23" class="edge">
<title>[root] module.create_instance.output.elastic_ip (expand)&#45;&gt;[root] module.create_instance.aws_eip.this (expand)</title>
<path fill="none" stroke="black" d="M1481.73,-361.03C1421.76,-350.53 1343.05,-336.76 1280.12,-325.75"/>
<polygon fill="black" stroke="black" points="1280.61,-322.28 1270.16,-324 1279.4,-329.17 1280.61,-322.28"/>
</g>
<!-- [root] module.create_instance.output.instance_pub_dns (expand)&#45;&gt;[root] module.create_instance.aws_instance.this (expand) -->
<g id="edge24" class="edge">
<title>[root] module.create_instance.output.instance_pub_dns (expand)&#45;&gt;[root] module.create_instance.aws_instance.this (expand)</title>
<path fill="none" stroke="black" d="M1677.22,-287.7C1678.22,-279.98 1679.41,-270.71 1680.51,-262.11"/>
<polygon fill="black" stroke="black" points="1684,-262.47 1681.8,-252.1 1677.05,-261.58 1684,-262.47"/>
</g>
<!-- [root] module.create_instance.output.instance_pub_ip (expand)&#45;&gt;[root] module.create_instance.aws_instance.this (expand) -->
<g id="edge25" class="edge">
<title>[root] module.create_instance.output.instance_pub_ip (expand)&#45;&gt;[root] module.create_instance.aws_instance.this (expand)</title>
<path fill="none" stroke="black" d="M2172.99,-289.85C2076.92,-279.08 1947.4,-264.55 1845.8,-253.15"/>
<polygon fill="black" stroke="black" points="1846.07,-249.66 1835.74,-252.02 1845.29,-256.62 1846.07,-249.66"/>
</g>
<!-- [root] module.create_instance.var.aip_attach (expand)&#45;&gt;[root] module.create_instance (expand) -->
<g id="edge26" class="edge">
<title>[root] module.create_instance.var.aip_attach (expand)&#45;&gt;[root] module.create_instance (expand)</title>
<path fill="none" stroke="black" d="M1061.11,-217.22C948.17,-194.65 783.21,-147.35 854,-72 876.19,-48.38 1267.59,-32.21 1510.8,-24.4"/>
<polygon fill="black" stroke="black" points="1510.94,-27.89 1520.83,-24.08 1510.72,-20.9 1510.94,-27.89"/>
</g>
<!-- [root] module.create_instance.var.instance_count (expand)&#45;&gt;[root] var.instance_count -->
<g id="edge28" class="edge">
<title>[root] module.create_instance.var.instance_count (expand)&#45;&gt;[root] var.instance_count</title>
<path fill="none" stroke="black" d="M2631,-143.7C2631,-135.98 2631,-126.71 2631,-118.11"/>
<polygon fill="black" stroke="black" points="2634.5,-118.1 2631,-108.1 2627.5,-118.1 2634.5,-118.1"/>
</g>
<!-- [root] module.create_instance.var.instance_count (expand)&#45;&gt;[root] module.create_instance (expand) -->
<g id="edge27" class="edge">
<title>[root] module.create_instance.var.instance_count (expand)&#45;&gt;[root] module.create_instance (expand)</title>
<path fill="none" stroke="black" d="M2594.64,-144.02C2548.1,-123.14 2464.45,-88.45 2389,-72 2228.22,-36.94 2041.87,-24.26 1903.85,-20.02"/>
<polygon fill="black" stroke="black" points="1903.68,-16.52 1893.58,-19.72 1903.47,-23.51 1903.68,-16.52"/>
</g>
<!-- [root] module.create_instance.var.instance_tags_name (expand)&#45;&gt;[root] var.instance_tags_name -->
<g id="edge30" class="edge">
<title>[root] module.create_instance.var.instance_tags_name (expand)&#45;&gt;[root] var.instance_tags_name</title>
<path fill="none" stroke="black" d="M2083.37,-144.32C2118.58,-134.26 2163.63,-121.39 2200.65,-110.81"/>
<polygon fill="black" stroke="black" points="2201.72,-114.15 2210.37,-108.04 2199.8,-107.42 2201.72,-114.15"/>
</g>
<!-- [root] module.create_instance.var.instance_tags_name (expand)&#45;&gt;[root] module.create_instance (expand) -->
<g id="edge29" class="edge">
<title>[root] module.create_instance.var.instance_tags_name (expand)&#45;&gt;[root] module.create_instance (expand)</title>
<path fill="none" stroke="black" d="M2248.2,-149.67C2304.33,-141.95 2353.83,-129.15 2372,-108 2382.42,-95.86 2382.86,-83.75 2372,-72 2340.39,-37.79 2087.52,-25.63 1901.72,-21.33"/>
<polygon fill="black" stroke="black" points="1901.61,-17.83 1891.54,-21.1 1901.45,-24.83 1901.61,-17.83"/>
</g>
<!-- [root] module.create_instance.var.my_instance_type (expand)&#45;&gt;[root] module.create_instance (expand) -->
<g id="edge31" class="edge">
<title>[root] module.create_instance.var.my_instance_type (expand)&#45;&gt;[root] module.create_instance (expand)</title>
<path fill="none" stroke="black" d="M1824.78,-72.05C1802.22,-62.3 1773.69,-49.98 1749.81,-39.66"/>
<polygon fill="black" stroke="black" points="1751.14,-36.42 1740.57,-35.67 1748.37,-42.85 1751.14,-36.42"/>
</g>
<!-- [root] module.create_instance.local.common_tags (expand)&#45;&gt;[root] module.create_instance (expand) -->
<g id="edge22" class="edge">
<title>[root] module.create_instance.local.common_tags (expand)&#45;&gt;[root] module.create_instance (expand)</title>
<path fill="none" stroke="black" d="M723.17,-77.17C951.14,-63.62 1320.53,-41.67 1534.37,-28.96"/>
<polygon fill="black" stroke="black" points="1534.66,-32.45 1544.44,-28.36 1534.25,-25.46 1534.66,-32.45"/>
</g>
<!-- [root] provider[&quot;registry.terraform.io/hashicorp/aws&quot;] (close) -->
<g id="node22" class="node">
<title>[root] provider[&quot;registry.terraform.io/hashicorp/aws&quot;] (close)</title>
<ellipse fill="none" stroke="black" cx="740" cy="-450" rx="291.65" ry="18"/>
<text text-anchor="middle" x="740" y="-446.3" font-family="Times,serif" font-size="14.00">[root] provider[&quot;registry.terraform.io/hashicorp/aws&quot;] (close)</text>
</g>
<!-- [root] provider[&quot;registry.terraform.io/hashicorp/aws&quot;] (close)&#45;&gt;[root] module.create_instance.aws_eip.this (expand) -->
<g id="edge32" class="edge">
<title>[root] provider[&quot;registry.terraform.io/hashicorp/aws&quot;] (close)&#45;&gt;[root] module.create_instance.aws_eip.this (expand)</title>
<path fill="none" stroke="black" d="M775.65,-431.95C794.08,-422.45 816.52,-409.77 835,-396 853.4,-382.29 851.58,-370.45 872,-360 918.39,-336.26 973.48,-322.94 1023.77,-315.53"/>
<polygon fill="black" stroke="black" points="1024.34,-318.98 1033.76,-314.13 1023.37,-312.05 1024.34,-318.98"/>
</g>
<!-- [root] provider[&quot;registry.terraform.io/hashicorp/aws&quot;] (close)&#45;&gt;[root] module.create_instance.aws_security_group_rule.SSH (expand) -->
<g id="edge33" class="edge">
<title>[root] provider[&quot;registry.terraform.io/hashicorp/aws&quot;] (close)&#45;&gt;[root] module.create_instance.aws_security_group_rule.SSH (expand)</title>
<path fill="none" stroke="black" d="M819.75,-432.68C870.28,-422.33 935.84,-408.92 988.77,-398.08"/>
<polygon fill="black" stroke="black" points="989.75,-401.45 998.84,-396.02 988.34,-394.6 989.75,-401.45"/>
</g>
<!-- [root] provider[&quot;registry.terraform.io/hashicorp/aws&quot;] (close)&#45;&gt;[root] module.create_instance.aws_security_group_rule.http (expand) -->
<g id="edge34" class="edge">
<title>[root] provider[&quot;registry.terraform.io/hashicorp/aws&quot;] (close)&#45;&gt;[root] module.create_instance.aws_security_group_rule.http (expand)</title>
<path fill="none" stroke="black" d="M712.4,-432.05C697.39,-422.84 678.63,-411.32 662.43,-401.37"/>
<polygon fill="black" stroke="black" points="664.09,-398.28 653.74,-396.03 660.43,-404.25 664.09,-398.28"/>
</g>
<!-- [root] provider[&quot;registry.terraform.io/hashicorp/aws&quot;] (close)&#45;&gt;[root] module.create_instance.aws_security_group_rule.https (expand) -->
<g id="edge35" class="edge">
<title>[root] provider[&quot;registry.terraform.io/hashicorp/aws&quot;] (close)&#45;&gt;[root] module.create_instance.aws_security_group_rule.https (expand)</title>
<path fill="none" stroke="black" d="M621.38,-433.51C539.66,-422.84 430.72,-408.61 344.63,-397.37"/>
<polygon fill="black" stroke="black" points="344.88,-393.87 334.51,-396.04 343.98,-400.81 344.88,-393.87"/>
</g>
<!-- [root] root -->
<g id="node23" class="node">
<title>[root] root</title>
<ellipse fill="none" stroke="black" cx="985" cy="-594" rx="58.49" ry="18"/>
<text text-anchor="middle" x="985" y="-590.3" font-family="Times,serif" font-size="14.00">[root] root</text>
</g>
<!-- [root] root&#45;&gt;[root] meta.count&#45;boundary (EachMode fixup) -->
<g id="edge36" class="edge">
<title>[root] root&#45;&gt;[root] meta.count&#45;boundary (EachMode fixup)</title>
<path fill="none" stroke="black" d="M1020.42,-579.67C1047.74,-569.39 1085.99,-554.99 1117.1,-543.29"/>
<polygon fill="black" stroke="black" points="1118.38,-546.54 1126.51,-539.75 1115.91,-539.99 1118.38,-546.54"/>
</g>
<!-- [root] root&#45;&gt;[root] provider[&quot;registry.terraform.io/hashicorp/aws&quot;] (close) -->
<g id="edge37" class="edge">
<title>[root] root&#45;&gt;[root] provider[&quot;registry.terraform.io/hashicorp/aws&quot;] (close)</title>
<path fill="none" stroke="black" d="M958.78,-577.8C915.43,-552.68 828.64,-502.37 778.38,-473.24"/>
<polygon fill="black" stroke="black" points="779.85,-470.05 769.44,-468.06 776.34,-476.11 779.85,-470.05"/>
</g>
</g>
</svg>
